<?xml version="1.0" encoding="UTF-8"?>
<!DOCTYPE svg
  PUBLIC '-//W3C//DTD SVG 1.1//EN'
  'http://www.w3.org/Graphics/SVG/1.1/DTD/svg11.dtd'>
<svg version="1.1" xmlns="http://www.w3.org/2000/svg" width="35.110mm" height="23.764mm">
    <!--Autogenerated with python-barcode 0.14.0-->
    <g id="barcode_group">
        <rect width="100%" height="100%" style="fill:white"/>
        <rect x="6.500mm" y="1.000mm" width="0.330mm" height="16.500mm" style="fill:black;"/>
        <rect x="7.160mm" y="1.000mm" width="0.330mm" height="16.500mm" style="fill:black;"/>
        <rect x="8.150mm" y="1.000mm" width="0.330mm" height="15.000mm" style="fill:black;"/>
        <rect x="9.140mm" y="1.000mm" width="0.660mm" height="15.000mm" style="fill:black;"/>
        <rect x="10.790mm" y="1.000mm" width="0.660mm" height="15.000mm" style="fill:black;"/>
        <rect x="11.780mm" y="1.000mm" width="0.330mm" height="15.000mm" style="fill:black;"/>
        <rect x="13.100mm" y="1.000mm" width="0.660mm" height="15.000mm" style="fill:black;"/>
        <rect x="14.090mm" y="1.000mm" width="0.330mm" height="15.000mm" style="fill:black;"/>
        <rect x="15.410mm" y="1.000mm" width="0.660mm" height="15.000mm" style="fill:black;"/>
        <rect x="16.400mm" y="1.000mm" width="0.330mm" height="15.000mm" style="fill:black;"/>
        <rect x="17.060mm" y="1.000mm" width="0.330mm" height="16.500mm" style="fill:black;"/>
        <rect x="17.720mm" y="1.000mm" width="0.330mm" height="16.500mm" style="fill:black;"/>
        <rect x="18.380mm" y="1.000mm" width="0.660mm" height="15.000mm" style="fill:black;"/>
        <rect x="19.370mm" y="1.000mm" width="0.660mm" height="15.000mm" style="fill:black;"/>
        <rect x="20.690mm" y="1.000mm" width="0.330mm" height="15.000mm" style="fill:black;"/>
        <rect x="21.350mm" y="1.000mm" width="0.990mm" height="15.000mm" style="fill:black;"/>
        <rect x="23.000mm" y="1.000mm" width="0.330mm" height="15.000mm" style="fill:black;"/>
        <rect x="23.990mm" y="1.000mm" width="0.990mm" height="15.000mm" style="fill:black;"/>
        <rect x="25.310mm" y="1.000mm" width="0.990mm" height="15.000mm" style="fill:black;"/>
        <rect x="26.630mm" y="1.000mm" width="0.330mm" height="15.000mm" style="fill:black;"/>
        <rect x="27.620mm" y="1.000mm" width="0.330mm" height="16.500mm" style="fill:black;"/>
        <rect x="28.280mm" y="1.000mm" width="0.330mm" height="16.500mm" style="fill:black;"/>
        <text x="5.180mm" y="19.528mm" style="fill:black;font-size:10pt;text-anchor:middle;">&lt;</text>
        <text x="12.605mm" y="19.528mm" style="fill:black;font-size:10pt;text-anchor:middle;">2000</text>
        <text x="23.000mm" y="19.528mm" style="fill:black;font-size:10pt;text-anchor:middle;">2459</text>
        <text x="29.930mm" y="19.528mm" style="fill:black;font-size:10pt;text-anchor:middle;">&gt;</text>
    </g>
</svg>
